<svg width="25" height="51" viewBox="0 0 25 51" fill="none" xmlns="http://www.w3.org/2000/svg">
<rect width="25" height="25" rx="12.5" fill="#BC0000"/>
<path d="M24.5964 15.1832C23.4914 20.0035 20.2249 30.3698 14.2485 46.1817C13.6032 47.889 11.2 47.8931 10.5496 46.1878C4.31329 29.837 1.36675 19.945 0.368905 15.1851C0.125293 14.0231 1.03407 13 2.22141 13H22.7744C23.9633 13 24.8621 14.0244 24.5964 15.1832Z" fill="#BC0000"/>
<path d="M6.14418 11.9091H7.34979L8.51065 14.1016H8.56037L9.72124 11.9091H10.9268L9.06996 15.2003V17H8.00107V15.2003L6.14418 11.9091ZM12.4202 17.0746C12.0341 17.0746 11.7001 16.9925 11.4184 16.8285C11.1383 16.6628 10.9221 16.4324 10.7696 16.1374C10.6172 15.8408 10.5409 15.4969 10.5409 15.1058C10.5409 14.7114 10.6172 14.3667 10.7696 14.0717C10.9221 13.7751 11.1383 13.5447 11.4184 13.3807C11.7001 13.215 12.0341 13.1321 12.4202 13.1321C12.8063 13.1321 13.1394 13.215 13.4195 13.3807C13.7012 13.5447 13.9183 13.7751 14.0708 14.0717C14.2232 14.3667 14.2994 14.7114 14.2994 15.1058C14.2994 15.4969 14.2232 15.8408 14.0708 16.1374C13.9183 16.4324 13.7012 16.6628 13.4195 16.8285C13.1394 16.9925 12.8063 17.0746 12.4202 17.0746ZM12.4252 16.2543C12.6008 16.2543 12.7475 16.2045 12.8651 16.1051C12.9828 16.004 13.0715 15.8665 13.1311 15.6925C13.1924 15.5185 13.2231 15.3204 13.2231 15.0984C13.2231 14.8763 13.1924 14.6783 13.1311 14.5043C13.0715 14.3303 12.9828 14.1927 12.8651 14.0916C12.7475 13.9905 12.6008 13.94 12.4252 13.94C12.2478 13.94 12.0987 13.9905 11.9777 14.0916C11.8584 14.1927 11.7681 14.3303 11.7068 14.5043C11.6471 14.6783 11.6173 14.8763 11.6173 15.0984C11.6173 15.3204 11.6471 15.5185 11.7068 15.6925C11.7681 15.8665 11.8584 16.004 11.9777 16.1051C12.0987 16.2045 12.2478 16.2543 12.4252 16.2543ZM17.4365 15.3743V13.1818H18.4955V17H17.4788V16.3065H17.439C17.3528 16.5302 17.2095 16.71 17.009 16.8459C16.8101 16.9818 16.5673 17.0497 16.2806 17.0497C16.0254 17.0497 15.8009 16.9917 15.607 16.8757C15.4131 16.7597 15.2615 16.5948 15.1521 16.381C15.0444 16.1673 14.9897 15.9112 14.988 15.6129V13.1818H16.047V15.424C16.0486 15.6494 16.1091 15.8275 16.2284 15.9585C16.3477 16.0894 16.5077 16.1548 16.7082 16.1548C16.8358 16.1548 16.9551 16.1258 17.0661 16.0678C17.1772 16.0082 17.2667 15.9203 17.3346 15.8043C17.4042 15.6883 17.4382 15.545 17.4365 15.3743Z" fill="white"/>
</svg>
